<svg width="360" height="318" viewBox="0 0 360 318" fill="none" xmlns="http://www.w3.org/2000/svg">
<g clip-path="url(#clip0_6_65)">
<path fill-rule="evenodd" clip-rule="evenodd" d="M119.439 207.786L108.837 249.918C107.953 253.287 105.966 256.185 102.859 258.602C99.7545 261.017 96.4695 262.232 93.03 262.232L106.752 207.786H89.787L88.0335 216.041L74.436 270.486H90.933C98.9805 270.486 106.629 267.506 113.889 261.555C121.15 255.606 125.761 248.607 127.749 240.558L133.878 216.041L135.948 207.786H119.439Z" fill="#E50539"/>
<path fill-rule="evenodd" clip-rule="evenodd" d="M165.174 182.055C163.794 180.413 161.957 179.585 159.665 179.585C157.361 179.585 155.262 180.413 153.344 182.055C151.439 183.698 150.293 185.672 149.919 187.964C149.519 190.352 150.017 192.353 151.397 193.995C152.763 195.639 154.599 196.467 156.891 196.467C159.197 196.467 161.309 195.624 163.227 193.941C165.132 192.257 166.293 190.269 166.664 187.964C167.039 185.672 166.541 183.698 165.174 182.054V182.055ZM149.699 256.074C149.727 255.909 149.781 255.702 149.864 255.453C149.948 255.204 150.003 255.053 150.017 254.957L161.819 207.786H134.475L132.39 216.041H143.336L133.508 254.957C133.37 255.302 133.259 255.785 133.148 256.448C132.444 260.714 133.535 264.095 136.406 266.609C139.278 269.106 143.543 270.363 149.217 270.363H151.674L153.773 262.107C150.488 261.624 149.12 259.61 149.7 256.074H149.699ZM195.185 252.873C194.522 255.413 193.059 257.594 190.796 259.401C188.531 261.21 186.116 262.107 183.575 262.107C178.812 262.107 176.811 259.815 177.557 255.204C177.572 255.137 177.626 254.93 177.722 254.598C177.819 254.267 177.875 254.018 177.902 253.853L185.811 222.198C186.888 218.099 189.151 216.041 192.603 216.041H204.434L195.185 252.873ZM210.549 257.553C210.576 257.387 210.632 257.222 210.702 257.055C210.771 256.89 210.812 256.737 210.839 256.572L223.029 207.786H194.577C188.655 207.786 183.147 209.457 178.053 212.784C172.946 216.11 169.785 220.28 168.555 225.278L161.681 252.873C161.503 253.393 161.378 253.929 161.307 254.474C160.55 259.071 161.888 262.868 165.339 265.862C168.789 268.857 173.304 270.362 178.896 270.362H181.478C186.323 270.362 190.822 268.679 194.993 265.31C197.076 268.679 200.984 270.363 206.726 270.363H212.523L214.608 262.107C211.433 261.942 210.079 260.424 210.549 257.553ZM290.616 223.925L290.394 225.278L283.534 252.872C282.802 255.827 281.601 258.104 279.945 259.706C278.289 261.306 276.562 262.107 274.755 262.107C273.113 262.107 271.855 261.375 270.986 259.884C270.115 258.408 269.882 256.53 270.254 254.225C270.296 253.995 270.356 253.77 270.434 253.55C270.516 253.259 270.572 253.04 270.599 252.872L277.46 225.278C278.15 222.572 279.296 220.376 280.884 218.693C282.471 217.008 284.251 216.165 286.225 216.165C287.868 216.165 289.111 216.843 289.953 218.196C290.794 219.561 291.03 221.466 290.616 223.925ZM303.178 212.286C299.768 209.292 295.283 207.786 289.69 207.786H287.109C281.022 207.786 275.472 209.471 270.447 212.84C265.422 216.207 262.302 220.362 261.087 225.278L254.088 252.872C253.917 253.394 253.793 253.93 253.716 254.474C252.943 259.154 254.281 262.964 257.746 265.932C261.199 268.886 265.767 270.363 271.427 270.363H273.885C279.889 270.363 285.412 268.652 290.491 265.256C295.572 261.845 298.706 257.718 299.921 252.872L306.906 225.278L307.167 223.689C307.914 219.08 306.588 215.283 303.177 212.286" fill="#E50539"/>
<mask id="mask0_6_65" style="mask-type:alpha" maskUnits="userSpaceOnUse" x="305" y="207" width="55" height="64">
<path d="M305.787 207.786H359.527V270.362H305.787V207.786Z" fill="white"/>
</mask>
<g mask="url(#mask0_6_65)">
<path fill-rule="evenodd" clip-rule="evenodd" d="M353.993 207.786C347.339 207.786 341.582 209.553 336.737 213.087L337.979 207.786H321.552L305.787 270.362H322.298L330.87 236.127C331.961 231.93 334.1 228.009 337.29 224.367C340.478 220.707 344.067 218.181 348.084 216.788L346.124 224.918H355.124L359.529 207.786H353.994H353.993Z" fill="#E50539"/>
</g>
<path fill-rule="evenodd" clip-rule="evenodd" d="M42.2145 226.076L42.2415 225.89L49.812 196.347C50.37 193.877 51.54 191.831 53.319 190.236C55.0995 188.643 57.1185 187.845 59.3235 187.845C61.3965 187.845 62.9085 188.537 63.9195 189.945C64.902 191.325 65.247 193.106 64.902 195.233L64.7175 196.347L57.1455 225.89L57.0915 226.076H42.2145ZM76.671 184.259C72.8985 181.151 67.8255 179.585 61.422 179.585C54.4365 179.585 48.2985 181.338 42.9585 184.82C37.6185 188.298 34.2435 192.92 32.8095 198.686L25.9545 225.89C20.1645 225.89 14.7975 225.915 10.626 225.915C4.731 225.915 0 230.726 0 236.624H23.2455L14.7705 270.362H31.1355L39.6375 236.624H54.5415L49.2555 257.558C49.0965 257.955 48.9885 258.488 48.8835 259.152C48.2985 262.685 48.9885 265.446 50.9805 267.414C52.947 269.379 55.95 270.362 59.961 270.362H66.4965L68.5965 262.1C66.231 261.941 65.247 260.666 65.6475 258.3L80.6025 198.686C80.6295 198.5 80.6835 198.18 80.817 197.702C80.949 197.198 81.0015 196.877 81.027 196.692C81.879 191.538 80.4165 187.394 76.671 184.259ZM253.647 207.786L257.388 193.265H240.878L237.263 207.786H229.158L227.058 216.041H235.176L225.321 255.081C225.291 255.246 225.224 255.537 225.113 255.951C225.003 256.365 224.948 256.641 224.919 256.821C224.229 261.003 225.044 264.303 227.349 266.732C229.67 269.147 233.162 270.362 237.84 270.362H243.639L245.751 261.983C242.355 261.666 240.947 259.733 241.527 256.2C241.554 256.034 241.61 255.825 241.692 255.579C241.761 255.329 241.818 255.177 241.832 255.081L251.672 216.041H258.699L260.799 207.786H253.647ZM239.685 96.3555L203.318 89.2965L239.676 74.694L246.804 82.977L239.685 96.3555ZM72.024 161.517V161.55L72.0735 161.517H72.024Z" fill="#E50539"/>
<path fill-rule="evenodd" clip-rule="evenodd" d="M221.925 101.16C220.632 103.073 217.612 106.631 213.184 105.908C211.02 105.54 122.968 87.6735 122.749 87.6585C122.13 87.4905 122.214 86.1645 123.337 86.298L221.337 99.819C221.482 99.8405 221.619 99.8985 221.735 99.9875C221.852 100.076 221.943 100.194 222.002 100.328C222.061 100.462 222.084 100.609 222.071 100.755C222.057 100.901 222.006 101.041 221.923 101.162L221.925 101.16ZM218.619 69.087L205.401 75.864C205.401 75.864 202.33 74.004 205.785 72.441C206.676 72.0405 208.705 70.881 210.349 70.026C211.254 69.5565 211.189 68.232 210.231 67.8465L200.401 63.9045C202.062 62.5785 204.646 61.7895 207.111 62.529C208.536 62.964 214.509 65.481 218.434 67.125C219.642 67.629 219.357 68.718 218.619 69.087ZM187.464 78.147C186.054 79.1535 176.769 77.421 176.769 77.421C176.769 77.421 187.044 68.2935 196.816 67.125C199.722 66.777 205.602 69.054 205.602 69.054C205.602 69.054 192.496 74.523 187.464 78.147ZM287.715 77.6595C283.369 68.1495 280.182 60.0285 279.042 58.0845C275.721 52.464 270.773 52.7655 266.529 53.505C255.204 55.449 250.794 57.4455 230.83 62.7465C227.895 63.552 222.36 65.1795 219.306 64.122C211.221 61.3545 208.773 59.1405 204.897 59.577C198.891 60.264 186.546 66.069 173.142 75.864C168.949 78.8835 169.434 82.488 168.696 84.87C168.546 85.389 168.882 85.893 169.419 85.959C171.364 86.1615 192.635 88.0095 193.608 88.1445C193.461 88.0713 193.338 87.9586 193.252 87.8193C193.166 87.6799 193.12 87.5193 193.12 87.3555C193.12 87.0705 193.255 86.7855 193.557 86.6355C199.629 83.3625 221.673 71.688 234.991 66.438C253.209 59.208 257.604 58.4355 263.139 57.9165C264.432 57.798 266.244 57.882 267.568 57.966C268.642 58.05 269.582 58.704 269.918 59.694C272.433 67.074 279.796 83.7495 283.688 89.268C283.688 89.268 283.002 90.576 281.692 90.6435C280.669 90.66 278.589 88.731 277.298 87.591C277.155 87.4746 276.98 87.4055 276.797 87.3934C276.613 87.3813 276.431 87.4268 276.274 87.5235C254.434 100.994 238.681 106.865 236.416 107.669C236.232 107.739 236.027 107.734 235.846 107.654L224.691 103.494C224.691 103.494 225.111 103.14 226.15 101.061C226.368 100.575 226.486 100.02 226.47 99.669C226.386 97.89 224.676 97.488 223.903 97.386C220.933 97.0185 141.202 85.2585 121.207 83.295C112.717 82.44 104.651 86.7855 101.162 91.332L101.178 91.4475L112.5 103.248C112.619 103.376 112.777 103.463 112.949 103.496C113.121 103.529 113.299 103.506 113.457 103.431L122.366 99.333C122.366 99.333 123.59 103.107 122.448 103.745C115.052 107.804 107.887 111.428 100.96 115.067C98.175 116.543 98.2425 119.322 97.3365 123.237C96.9585 124.875 96.7665 126.375 96.7665 126.375C96.7665 126.375 112.299 118.59 121.812 114.045C122.146 113.895 122.517 113.96 122.784 114.228C124.143 115.689 124.59 116.024 125.513 116.946C125.607 117.039 125.678 117.153 125.719 117.278C125.761 117.404 125.773 117.538 125.753 117.668C125.734 117.799 125.683 117.924 125.607 118.031C125.53 118.139 125.429 118.227 125.312 118.289C123.062 119.478 120.749 120.704 118.97 121.76C117.56 122.6 118.993 125.402 118.993 125.402L144.843 113.156C144.843 113.156 146.454 114.749 143.601 116.511C139.191 119.279 98.427 140.061 94.9215 140.147C85.6785 140.381 68.232 122.987 61.9245 120.335C56.607 118.104 50.8875 121.745 43.1205 126.308C41.0055 127.565 42.2985 130.601 42.2985 130.601L53.5545 124.899C53.5545 124.899 54.9465 126.509 53.3865 127.479C47.934 130.937 40.0515 134.393 38.8425 135.264C37.0635 136.539 37.7475 142.512 37.7475 142.512L48.3975 137.577C48.7155 137.426 49.119 137.475 49.269 137.627L72.09 159.354C73.416 159.018 74.6565 158.649 76.317 157.929L57.2775 137.679C57.1876 137.582 57.1214 137.466 57.0839 137.34C57.0465 137.213 57.0388 137.08 57.0617 136.95C57.0845 136.82 57.1371 136.697 57.2154 136.591C57.2937 136.485 57.3956 136.398 57.513 136.338C59.4585 135.348 61.791 134.628 65.079 137.144C67.8465 139.241 77.5245 147.074 86.886 146.235C90.006 145.967 90.057 146.924 90.057 146.924C90.057 146.924 86.082 148.836 81.366 151.418C79.035 152.711 80.931 156.116 80.931 156.116C105.051 146.22 134.76 133.905 138.919 132.111C139.06 132.054 139.213 132.036 139.363 132.056C139.512 132.077 139.654 132.136 139.774 132.228L146.754 137.763C147.744 139.308 197.364 120.234 212.664 112.502C213.519 112.082 221.301 112.434 225.058 112.401C226.786 112.401 226.72 113.156 226.72 113.156C226.72 113.156 102.535 162.659 72.0705 161.517L72.0225 161.55L65.529 164.336C69.339 166.851 68.4315 171.195 74.907 167.841C75.2925 168.731 75.747 169.671 76.215 170.676C77.475 173.412 77.475 173.427 85.71 170.625C109.011 162.741 213.802 131.424 237.27 121.71C250.524 116.243 268.842 108.693 280.266 101.615C291.537 94.6515 293.837 91.062 287.714 77.6595H287.715ZM285.555 60.951C285.472 60.9675 285.372 60.984 285.286 61.0185C285.199 61.0524 285.12 61.1034 285.053 61.1685L285.959 60.933C285.807 60.933 285.69 60.951 285.555 60.951ZM318.966 130.668L318.798 130.937L318.615 130.668C318.496 130.5 306.99 113.559 302.829 106.998C301.57 105.02 303.048 104.03 303.048 104.03L303.215 103.931L303.331 104.081C303.919 104.817 317.49 122.499 319.251 125.754C320.594 128.187 319.033 130.569 318.966 130.668ZM321.751 127.179C321.012 124.227 315.612 104.649 312.49 97.47L298.266 71.94C296.907 73.7685 295.314 75.7305 293.787 77.1555C293.502 77.391 293.2 77.592 292.848 77.76C292.413 77.9445 291.975 78.045 291.538 78.0615L299.205 103.242C300.345 107.285 303.013 110.723 305.311 114.212C306.469 115.94 314.622 128.102 317.759 132.767C318.413 133.739 319.874 133.772 320.509 132.782C321.65 131.037 322.204 128.925 321.751 127.179Z" fill="#E50539"/>
<mask id="mask1_6_65" style="mask-type:alpha" maskUnits="userSpaceOnUse" x="261" y="0" width="32" height="60">
<path d="M261.024 0.897034H292.243V59.961H261.024V0.897034Z" fill="white"/>
</mask>
<g mask="url(#mask1_6_65)">
<path fill-rule="evenodd" clip-rule="evenodd" d="M279.796 30.8065L279.628 30.907L279.512 30.757C278.941 30.001 265.387 12.337 263.592 9.06702C262.284 6.61752 263.827 4.25202 263.893 4.15152L264.061 3.89952L264.247 4.15152C264.363 4.33602 275.887 21.2965 280.031 27.8365C281.29 29.8165 279.814 30.79 279.796 30.8065ZM283.99 32.569C282.43 27.283 279.763 23.8615 277.448 20.356C276.29 18.5935 267.819 5.96202 264.834 1.51602C264.279 0.680524 263.038 0.697024 262.485 1.53702C261.259 3.36252 260.724 5.66052 261.195 7.50552C261.948 10.441 267.165 29.917 270.284 37.096L283.268 59.9605C283.588 59.6095 283.988 59.3065 284.443 59.1055C284.762 58.9705 285.097 58.888 285.416 58.8715C287.126 58.753 289.811 58.7695 292.241 58.8205L283.99 32.569Z" fill="#E50539"/>
</g>
<path fill-rule="evenodd" clip-rule="evenodd" d="M288.47 67.83L286.422 63.1155C286.422 63.1155 286.053 62.412 286.893 62.0415C286.959 62.0085 287.028 61.9755 287.111 61.9575C287.111 61.9575 295.583 61.656 298.233 62.1765C299.643 62.4615 299.693 62.964 299.693 62.964L288.47 67.8285V67.83ZM300.095 60.9525C296.555 60.1635 289.861 60.1125 285.852 60.3645C285.684 60.3645 285.567 60.3645 285.417 60.381C285.333 60.399 285.232 60.414 285.132 60.4485C285.037 60.4864 284.951 60.5437 284.88 60.6165C284.427 60.9525 284.142 61.6065 284.343 62.109C286.166 66.7558 288.209 71.3129 290.466 75.765C290.768 76.3845 291.657 76.485 292.295 76.2165C292.43 76.1505 292.564 76.0665 292.663 75.9825C296.085 72.795 299.307 68.283 301.337 63.8025C301.956 62.3955 301.571 61.287 300.095 60.9525ZM256.954 62.2605C256.954 62.2605 255.356 68.8755 252.836 76.5105L248.169 70.6125L244.385 72.333L251.264 81.042C249.12 86.9175 246.531 92.76 243.776 96.204L250.671 93.069C252.242 91.614 253.51 88.6665 254.497 85.137L258.286 89.934L262.089 88.2045L255.665 80.0865C257.055 72.7485 257.454 64.7685 256.954 62.2605ZM229.112 299.661H130.416C129.226 299.658 128.086 299.184 127.245 298.343C126.404 297.501 125.93 296.361 125.927 295.172C125.93 293.982 126.404 292.842 127.245 292.001C128.087 291.16 129.227 290.687 130.416 290.684H229.112C230.301 290.687 231.441 291.16 232.282 292.001C233.123 292.842 233.597 293.982 233.601 295.172C233.598 296.361 233.124 297.501 232.283 298.343C231.441 299.184 230.301 299.658 229.112 299.661ZM211.157 317.316H148.371C147.182 317.313 146.042 316.839 145.2 315.998C144.359 315.157 143.885 314.017 143.882 312.828C143.885 311.638 144.359 310.498 145.2 309.657C146.041 308.816 147.181 308.342 148.371 308.339H211.157C212.346 308.342 213.486 308.816 214.328 309.657C215.169 310.498 215.643 311.638 215.646 312.828C215.642 314.017 215.168 315.157 214.327 315.998C213.486 316.839 212.346 317.313 211.157 317.316Z" fill="#E50539"/>
</g>
<defs>
<clipPath id="clip0_6_65">
<rect width="360" height="318" fill="white"/>
</clipPath>
</defs>
</svg>
